<svg xmlns="http://www.w3.org/2000/svg" viewBox="0 0 80 80"><defs><linearGradient id="au" x1="0" y1="0" x2="0" y2="1"><stop offset="0" stop-color="#1a237e"/><stop offset="1" stop-color="#0d1421"/></linearGradient></defs><rect width="80" height="80" rx="18" fill="url(#au)"/><circle cx="20" cy="20" r="1" fill="#fff"/><circle cx="60" cy="18" r="1.5" fill="#fff"/><circle cx="65" cy="60" r="1" fill="#fff"/><circle cx="14" cy="55" r="1" fill="#fff"/><path d="M40 18 c-9 0-15 6-15 15 v22 c0 3 2 5 5 5 h4 v-8 h12 v8 h4 c3 0 5-2 5-5 V33 c0-9-6-15-15-15z" fill="#f44336"/><path d="M28 30 c0-3 3-6 8-6 c5 0 8 3 8 8 v6 c0 2-1 4-4 4 h-8 c-3 0-4-2-4-4 z" fill="#80d8ff" opacity=".9"/><path d="M30 32 c0-2 2-4 6-4 c4 0 6 2 6 5 v3 z" fill="#fff" opacity=".5"/></svg>
