<svg xmlns="http://www.w3.org/2000/svg" viewBox="0 0 80 80"><defs><linearGradient id="coc" x1="0" y1="0" x2="0" y2="1"><stop offset="0" stop-color="#ffb74d"/><stop offset="1" stop-color="#d84315"/></linearGradient></defs><rect width="80" height="80" rx="18" fill="url(#coc)"/><path d="M40 14 L62 22 L62 42 c0 14-10 22-22 26 c-12-4-22-12-22-26 V22 z" fill="#5d4037"/><path d="M40 18 L58 24 L58 42 c0 11-8 18-18 21 c-10-3-18-10-18-21 V24 z" fill="#fff8e1"/><circle cx="40" cy="38" r="10" fill="#d84315"/><path d="M34 32 L40 28 L46 32 L46 42 L40 46 L34 42 z" fill="#ffd54f" stroke="#5d4037" stroke-width="1"/></svg>
