<svg xmlns="http://www.w3.org/2000/svg" viewBox="0 0 80 80"><defs><linearGradient id="ff" x1="0" y1="0" x2="0" y2="1"><stop offset="0" stop-color="#ff9800"/><stop offset=".5" stop-color="#f44336"/><stop offset="1" stop-color="#1a1a1a"/></linearGradient></defs><rect width="80" height="80" rx="18" fill="url(#ff)"/><path d="M40 14 c-6 8-14 18-14 28 c0 12 8 20 14 22 c6-2 14-10 14-22 c0-10-8-20-14-28z" fill="#ffeb3b"/><path d="M40 24 c-3 5-7 10-7 16 c0 6 4 10 7 12 c3-2 7-6 7-12 c0-6-4-11-7-16z" fill="#ff5722"/><path d="M40 36 c-2 2-3 5-3 8 c0 3 2 5 3 6 c1-1 3-3 3-6 c0-3-1-6-3-8z" fill="#fff"/></svg>
