<svg xmlns="http://www.w3.org/2000/svg" viewBox="0 0 80 80"><defs><linearGradient id="mc" x1="0" y1="0" x2="0" y2="1"><stop offset="0" stop-color="#558b2f"/><stop offset="1" stop-color="#33691e"/></linearGradient></defs><rect width="80" height="80" rx="18" fill="url(#mc)"/><g shape-rendering="crispEdges"><rect x="20" y="20" width="10" height="10" fill="#7cb342"/><rect x="30" y="20" width="10" height="10" fill="#558b2f"/><rect x="40" y="20" width="10" height="10" fill="#7cb342"/><rect x="50" y="20" width="10" height="10" fill="#689f38"/><rect x="20" y="30" width="10" height="10" fill="#8d6e63"/><rect x="30" y="30" width="10" height="10" fill="#a1887f"/><rect x="40" y="30" width="10" height="10" fill="#8d6e63"/><rect x="50" y="30" width="10" height="10" fill="#795548"/><rect x="20" y="40" width="10" height="10" fill="#a1887f"/><rect x="30" y="40" width="10" height="10" fill="#8d6e63"/><rect x="40" y="40" width="10" height="10" fill="#a1887f"/><rect x="50" y="40" width="10" height="10" fill="#8d6e63"/><rect x="20" y="50" width="10" height="10" fill="#795548"/><rect x="30" y="50" width="10" height="10" fill="#8d6e63"/><rect x="40" y="50" width="10" height="10" fill="#795548"/><rect x="50" y="50" width="10" height="10" fill="#a1887f"/></g></svg>
