<svg xmlns="http://www.w3.org/2000/svg" viewBox="0 0 80 80"><defs><linearGradient id="tr" x1="0" y1="0" x2="0" y2="1"><stop offset="0" stop-color="#558b2f"/><stop offset="1" stop-color="#1b5e20"/></linearGradient></defs><rect width="80" height="80" rx="18" fill="url(#tr)"/><path d="M0 70 L80 70 L70 80 L10 80 z" fill="#5d4037"/><circle cx="40" cy="22" r="6" fill="#ffe0b2"/><path d="M40 28 c-5 0-8 3-8 8 v15 c0 1 1 2 2 2 h12 c1 0 2-1 2-2 V36 c0-5-3-8-8-8z" fill="#3949ab"/><rect x="34" y="48" width="4" height="14" fill="#3949ab"/><rect x="42" y="48" width="4" height="14" fill="#5e35b1"/><path d="M54 12 L62 12 L62 18 L54 18z M54 22 L62 22 L62 28 L54 28 z" fill="#ffd54f"/><path d="M18 14 L26 14 L26 20 L18 20 z" fill="#ffd54f"/></svg>
