<svg xmlns="http://www.w3.org/2000/svg" viewBox="0 0 400 300" preserveAspectRatio="xMidYMid slice">
<rect width="400" height="300" fill="#faf8ef"/>
<!-- board -->
<rect x="100" y="30" width="200" height="200" rx="8" fill="#bbada0"/>
<!-- tiles -->
<g font-family="Arial Black, sans-serif" font-weight="900" text-anchor="middle">
<rect x="110" y="40" width="42" height="42" rx="4" fill="#eee4da"/>
<text x="131" y="70" font-size="22" fill="#776e65">2</text>
<rect x="158" y="40" width="42" height="42" rx="4" fill="#ede0c8"/>
<text x="179" y="70" font-size="22" fill="#776e65">4</text>
<rect x="206" y="40" width="42" height="42" rx="4" fill="#f2b179"/>
<text x="227" y="70" font-size="22" fill="#f9f6f2">8</text>
<rect x="254" y="40" width="42" height="42" rx="4" fill="#f59563"/>
<text x="275" y="71" font-size="18" fill="#f9f6f2">16</text>
<rect x="110" y="88" width="42" height="42" rx="4" fill="#f67c5f"/>
<text x="131" y="119" font-size="18" fill="#f9f6f2">32</text>
<rect x="158" y="88" width="42" height="42" rx="4" fill="#f65e3b"/>
<text x="179" y="119" font-size="18" fill="#f9f6f2">64</text>
<rect x="206" y="88" width="42" height="42" rx="4" fill="#edcf72"/>
<text x="227" y="118" font-size="14" fill="#f9f6f2">128</text>
<rect x="254" y="88" width="42" height="42" rx="4" fill="#edcc61"/>
<text x="275" y="118" font-size="14" fill="#f9f6f2">256</text>
<rect x="110" y="136" width="42" height="42" rx="4" fill="#edc850"/>
<text x="131" y="166" font-size="14" fill="#f9f6f2">512</text>
<rect x="158" y="136" width="42" height="42" rx="4" fill="rgba(238,228,218,0.35)"/>
<rect x="206" y="136" width="42" height="42" rx="4" fill="#edc53f"/>
<text x="227" y="166" font-size="11" fill="#f9f6f2">1024</text>
<rect x="254" y="136" width="42" height="42" rx="4" fill="#edc22e"/>
<text x="275" y="166" font-size="11" fill="#f9f6f2">2048</text>
<rect x="110" y="184" width="42" height="42" rx="4" fill="rgba(238,228,218,0.35)"/>
<rect x="158" y="184" width="42" height="42" rx="4" fill="rgba(238,228,218,0.35)"/>
<rect x="206" y="184" width="42" height="42" rx="4" fill="rgba(238,228,218,0.35)"/>
<rect x="254" y="184" width="42" height="42" rx="4" fill="rgba(238,228,218,0.35)"/>
<text x="200" y="275" font-size="38" font-weight="900" fill="#776e65" text-anchor="middle">2048 MERGE</text>
</g>
</svg>
