<svg xmlns="http://www.w3.org/2000/svg" viewBox="0 0 400 300" preserveAspectRatio="xMidYMid slice">
<rect width="400" height="300" fill="#0a0a0a"/>
<g stroke="rgba(0,255,65,0.08)" stroke-width="1">
<line x1="0" y1="40" x2="400" y2="40"/>
<line x1="0" y1="80" x2="400" y2="80"/>
<line x1="0" y1="120" x2="400" y2="120"/>
<line x1="0" y1="160" x2="400" y2="160"/>
<line x1="0" y1="200" x2="400" y2="200"/>
<line x1="0" y1="240" x2="400" y2="240"/>
</g>
<g font-family="'Courier New', monospace" font-weight="900" text-anchor="middle">
<text x="200" y="50" font-size="14" fill="#00ff41" opacity="0.7">&gt; DECODE THE PATTERN_</text>
<rect x="60" y="70" width="280" height="52" rx="4" fill="rgba(0,255,65,0.08)" stroke="#00ff41" stroke-width="1"/>
<text x="200" y="104" font-size="22" fill="#00ff41">CAT = 24</text>
<text x="200" y="145" font-size="14" fill="#00ff41" opacity="0.6">// If CAT=24, then DOG=?</text>
<rect x="60" y="160" width="135" height="40" rx="4" fill="rgba(0,255,65,0.05)" stroke="#00ff41" stroke-width="1" opacity="0.6"/>
<text x="127" y="186" font-size="15" fill="#00ff41" opacity="0.7">A) 22</text>
<rect x="205" y="160" width="135" height="40" rx="4" fill="#00ff41"/>
<text x="272" y="186" font-size="15" fill="#0a0a0a">B) 26 ✓</text>
<rect x="60" y="205" width="135" height="40" rx="4" fill="rgba(0,255,65,0.05)" stroke="#00ff41" stroke-width="1" opacity="0.6"/>
<text x="127" y="231" font-size="15" fill="#00ff41" opacity="0.7">C) 24</text>
<rect x="205" y="205" width="135" height="40" rx="4" fill="rgba(0,255,65,0.05)" stroke="#00ff41" stroke-width="1" opacity="0.6"/>
<text x="272" y="231" font-size="15" fill="#00ff41" opacity="0.7">D) 28</text>
<text x="200" y="285" font-family="Arial Black, sans-serif" font-size="28" fill="#00ff41">CODE CRACKER</text>
</g>
</svg>
