<svg xmlns="http://www.w3.org/2000/svg" viewBox="0 0 400 300" preserveAspectRatio="xMidYMid slice">
<rect width="400" height="300" fill="#1a1a2e"/>
<!-- tubes -->
<g stroke="#555" stroke-width="2" fill="none">
<path d="M60,80 L60,210 Q60,230 80,230 L100,230 Q120,230 120,210 L120,80"/>
<path d="M150,80 L150,210 Q150,230 170,230 L190,230 Q210,230 210,210 L210,80"/>
<path d="M240,80 L240,210 Q240,230 260,230 L280,230 Q300,230 300,210 L300,80"/>
<path d="M330,80 L330,210 Q330,230 350,230 L370,230 Q390,230 390,210 L390,80"/>
</g>
<!-- liquid layers tube1 -->
<rect x="62" y="175" width="56" height="33" rx="3" fill="#e74c3c"/>
<rect x="62" y="142" width="56" height="33" rx="3" fill="#3498db"/>
<rect x="62" y="109" width="56" height="33" rx="3" fill="#2ecc71"/>
<rect x="62" y="84" width="56" height="25" rx="3" fill="#e74c3c"/>
<!-- tube2 -->
<rect x="152" y="175" width="56" height="33" rx="3" fill="#f39c12"/>
<rect x="152" y="142" width="56" height="33" rx="3" fill="#2ecc71"/>
<rect x="152" y="109" width="56" height="33" rx="3" fill="#3498db"/>
<rect x="152" y="84" width="56" height="25" rx="3" fill="#f39c12"/>
<!-- tube3 -->
<rect x="242" y="175" width="56" height="33" rx="3" fill="#2ecc71"/>
<rect x="242" y="142" width="56" height="33" rx="3" fill="#e74c3c"/>
<rect x="242" y="109" width="56" height="33" rx="3" fill="#f39c12"/>
<rect x="242" y="84" width="56" height="25" rx="3" fill="#3498db"/>
<!-- tube4 empty -->
<!-- title -->
<text x="200" y="275" font-family="Arial Black, sans-serif" font-size="34" font-weight="900" fill="#f1c40f" text-anchor="middle">COLOR SORT</text>
</svg>
