<svg xmlns="http://www.w3.org/2000/svg" viewBox="0 0 400 300" preserveAspectRatio="xMidYMid slice">
<rect width="400" height="300" fill="#fef7e0"/>
<rect x="0" y="0" width="400" height="6" fill="#ff9933"/>
<rect x="0" y="6" width="400" height="4" fill="#fff"/>
<rect x="0" y="10" width="400" height="6" fill="#138808"/>
<circle cx="200" cy="10" r="2.5" fill="#000080"/>
<g font-family="Arial Black, sans-serif" font-weight="900" text-anchor="middle">
<text x="200" y="40" font-family="Arial, sans-serif" font-size="12" font-weight="700" fill="#78350f" letter-spacing="2">WHICH STATE HAS THE TAJ MAHAL?</text>
<rect x="30" y="55" width="105" height="42" rx="6" fill="#f97316" opacity="0.25" stroke="#f97316" stroke-width="1.5"/>
<text x="82" y="80" font-size="12" fill="#7c2d12">RAJASTHAN</text>
<rect x="145" y="55" width="105" height="42" rx="6" fill="#f97316"/>
<text x="197" y="80" font-size="11" fill="#fff">UTTAR PRADESH ✓</text>
<rect x="260" y="55" width="105" height="42" rx="6" fill="#f97316" opacity="0.25" stroke="#f97316" stroke-width="1.5"/>
<text x="312" y="80" font-size="12" fill="#7c2d12">BIHAR</text>
<rect x="30" y="105" width="105" height="42" rx="6" fill="#16a34a" opacity="0.25" stroke="#16a34a" stroke-width="1.5"/>
<text x="82" y="130" font-size="12" fill="#14532d">KARNATAKA</text>
<rect x="145" y="105" width="105" height="42" rx="6" fill="#16a34a" opacity="0.25" stroke="#16a34a" stroke-width="1.5"/>
<text x="197" y="130" font-size="12" fill="#14532d">KERALA</text>
<rect x="260" y="105" width="105" height="42" rx="6" fill="#16a34a" opacity="0.25" stroke="#16a34a" stroke-width="1.5"/>
<text x="312" y="130" font-size="12" fill="#14532d">GOA</text>
<rect x="30" y="155" width="105" height="42" rx="6" fill="#3b82f6" opacity="0.25" stroke="#3b82f6" stroke-width="1.5"/>
<text x="82" y="180" font-size="12" fill="#1e3a8a">W BENGAL</text>
<rect x="145" y="155" width="105" height="42" rx="6" fill="#8b5cf6" opacity="0.25" stroke="#8b5cf6" stroke-width="1.5"/>
<text x="197" y="180" font-size="12" fill="#4c1d95">GUJARAT</text>
<rect x="260" y="155" width="105" height="42" rx="6" fill="#ec4899" opacity="0.25" stroke="#ec4899" stroke-width="1.5"/>
<text x="312" y="180" font-size="12" fill="#831843">ASSAM</text>
<rect x="30" y="205" width="105" height="42" rx="6" fill="#eab308" opacity="0.25" stroke="#eab308" stroke-width="1.5"/>
<text x="82" y="230" font-size="11" fill="#713f12">MP</text>
<rect x="145" y="205" width="105" height="42" rx="6" fill="#eab308" opacity="0.25" stroke="#eab308" stroke-width="1.5"/>
<text x="197" y="230" font-size="11" fill="#713f12">PUNJAB</text>
<rect x="260" y="205" width="105" height="42" rx="6" fill="#8b5cf6" opacity="0.25" stroke="#8b5cf6" stroke-width="1.5"/>
<text x="312" y="230" font-size="11" fill="#4c1d95">MAHARASHTRA</text>
<text x="200" y="283" font-size="28" fill="#dc2626">INDIA MAP MASTER</text>
</g>
</svg>
