<svg xmlns="http://www.w3.org/2000/svg" viewBox="0 0 400 300" preserveAspectRatio="xMidYMid slice">
<defs>
<linearGradient id="mmbg" x1="0" y1="0" x2="1" y2="1">
<stop offset="0%" stop-color="#0f0f23"/>
<stop offset="100%" stop-color="#2d1b4e"/>
</linearGradient>
</defs>
<rect width="400" height="300" fill="url(#mmbg)"/>
<g font-family="Arial Black, sans-serif" font-weight="900" text-anchor="middle">
<text x="200" y="45" font-family="Arial, sans-serif" font-size="13" font-weight="700" fill="#ffbe0b" letter-spacing="2">MEMORIZE THE DIGITS</text>
<rect x="80" y="65" width="46" height="54" rx="8" fill="#7b2cbf"/>
<text x="103" y="103" font-size="32" fill="#fff">5</text>
<rect x="130" y="65" width="46" height="54" rx="8" fill="#7b2cbf"/>
<text x="153" y="103" font-size="32" fill="#fff">8</text>
<rect x="180" y="65" width="46" height="54" rx="8" fill="#ffbe0b"/>
<text x="203" y="103" font-size="32" fill="#0f0f23">3</text>
<rect x="230" y="65" width="46" height="54" rx="8" fill="#7b2cbf" opacity="0.5"/>
<rect x="280" y="65" width="46" height="54" rx="8" fill="#7b2cbf" opacity="0.3"/>
<rect x="60" y="145" width="40" height="40" rx="4" fill="rgba(123,44,191,0.3)" stroke="#7b2cbf" stroke-width="1"/>
<rect x="110" y="145" width="40" height="40" rx="4" fill="#ffbe0b"/>
<rect x="160" y="145" width="40" height="40" rx="4" fill="rgba(123,44,191,0.3)" stroke="#7b2cbf" stroke-width="1"/>
<rect x="210" y="145" width="40" height="40" rx="4" fill="#ffbe0b"/>
<rect x="260" y="145" width="40" height="40" rx="4" fill="rgba(123,44,191,0.3)" stroke="#7b2cbf" stroke-width="1"/>
<rect x="310" y="145" width="40" height="40" rx="4" fill="#ffbe0b"/>
<rect x="60" y="190" width="40" height="40" rx="4" fill="#ffbe0b"/>
<rect x="110" y="190" width="40" height="40" rx="4" fill="rgba(123,44,191,0.3)" stroke="#7b2cbf" stroke-width="1"/>
<rect x="160" y="190" width="40" height="40" rx="4" fill="rgba(123,44,191,0.3)" stroke="#7b2cbf" stroke-width="1"/>
<rect x="210" y="190" width="40" height="40" rx="4" fill="#ffbe0b"/>
<rect x="260" y="190" width="40" height="40" rx="4" fill="rgba(123,44,191,0.3)" stroke="#7b2cbf" stroke-width="1"/>
<rect x="310" y="190" width="40" height="40" rx="4" fill="rgba(123,44,191,0.3)" stroke="#7b2cbf" stroke-width="1"/>
<text x="200" y="260" font-size="13" font-weight="700" fill="#ffbe0b" font-family="Arial, sans-serif" letter-spacing="1">LEVEL 7 · SEQUENCE LENGTH 9</text>
<text x="200" y="285" font-size="28" fill="#fff">MEMORY MASTER</text>
</g>
</svg>
