<svg xmlns="http://www.w3.org/2000/svg" viewBox="0 0 400 300" preserveAspectRatio="xMidYMid slice">
<rect width="400" height="300" fill="#fff"/>
<g font-family="Arial Black, sans-serif" font-weight="900" text-anchor="middle">
<text x="200" y="30" font-family="Arial, sans-serif" font-size="12" font-weight="700" fill="#666" letter-spacing="2">DAILY CROSSWORD · PUZZLE #42</text>
<!-- 5x5 grid -->
<g>
<rect x="115" y="50" width="34" height="34" fill="#fff" stroke="#222" stroke-width="1.5"/>
<text x="132" y="76" font-size="16" fill="#222">G</text>
<text x="117" y="60" font-size="7" fill="#888">1</text>
<rect x="149" y="50" width="34" height="34" fill="#fff" stroke="#222" stroke-width="1.5"/>
<text x="166" y="76" font-size="16" fill="#222">A</text>
<rect x="183" y="50" width="34" height="34" fill="#fff" stroke="#222" stroke-width="1.5"/>
<text x="200" y="76" font-size="16" fill="#222">N</text>
<rect x="217" y="50" width="34" height="34" fill="#fff" stroke="#222" stroke-width="1.5"/>
<text x="234" y="76" font-size="16" fill="#222">G</text>
<rect x="251" y="50" width="34" height="34" fill="#fff" stroke="#222" stroke-width="1.5"/>
<text x="268" y="76" font-size="16" fill="#222">A</text>
<rect x="115" y="84" width="34" height="34" fill="#fef3c7" stroke="#222" stroke-width="1.5"/>
<text x="132" y="110" font-size="16" fill="#222">U</text>
<rect x="149" y="84" width="34" height="34" fill="#fff" stroke="#222" stroke-width="1.5"/>
<text x="166" y="110" font-size="16" fill="#222">R</text>
<rect x="183" y="84" width="34" height="34" fill="#fde68a" stroke="#222" stroke-width="1.5"/>
<text x="200" y="110" font-size="16" fill="#222">U</text>
<rect x="217" y="84" width="34" height="34" fill="#fff" stroke="#222" stroke-width="1.5"/>
<text x="234" y="110" font-size="16" fill="#222">E</text>
<rect x="251" y="84" width="34" height="34" fill="#fff" stroke="#222" stroke-width="1.5"/>
<text x="268" y="110" font-size="16" fill="#222">S</text>
<rect x="115" y="118" width="34" height="34" fill="#fef3c7" stroke="#222" stroke-width="1.5"/>
<text x="132" y="144" font-size="16" fill="#222">J</text>
<rect x="149" y="118" width="34" height="34" fill="#fff" stroke="#222" stroke-width="1.5"/>
<text x="166" y="144" font-size="16" fill="#222">U</text>
<rect x="183" y="118" width="34" height="34" fill="#fde68a" stroke="#222" stroke-width="1.5"/>
<text x="200" y="144" font-size="16" fill="#222">S</text>
<rect x="217" y="118" width="34" height="34" fill="#fff" stroke="#222" stroke-width="1.5"/>
<text x="234" y="144" font-size="16" fill="#222">T</text>
<rect x="251" y="118" width="34" height="34" fill="#fff" stroke="#222" stroke-width="1.5"/>
<text x="268" y="144" font-size="16" fill="#222"></text>
<rect x="115" y="152" width="34" height="34" fill="#fff" stroke="#222" stroke-width="1.5"/>
<text x="132" y="178" font-size="16" fill="#222">A</text>
<rect x="149" y="152" width="34" height="34" fill="#fff" stroke="#222" stroke-width="1.5"/>
<text x="166" y="178" font-size="16" fill="#222">R</text>
<rect x="183" y="152" width="34" height="34" fill="#fde68a" stroke="#222" stroke-width="1.5"/>
<rect x="217" y="152" width="34" height="34" fill="#fff" stroke="#222" stroke-width="1.5"/>
<text x="234" y="178" font-size="16" fill="#222">A</text>
<rect x="251" y="152" width="34" height="34" fill="#fff" stroke="#222" stroke-width="1.5"/>
<text x="268" y="178" font-size="16" fill="#222">N</text>
<rect x="115" y="186" width="34" height="34" fill="#fff" stroke="#222" stroke-width="1.5"/>
<text x="132" y="212" font-size="16" fill="#222">R</text>
<rect x="149" y="186" width="34" height="34" fill="#fff" stroke="#222" stroke-width="1.5"/>
<text x="166" y="212" font-size="16" fill="#222">E</text>
<rect x="183" y="186" width="34" height="34" fill="#fde68a" stroke="#222" stroke-width="1.5"/>
<text x="200" y="212" font-size="16" fill="#222">N</text>
<rect x="217" y="186" width="34" height="34" fill="#fff" stroke="#222" stroke-width="1.5"/>
<text x="234" y="212" font-size="16" fill="#222">A</text>
<rect x="251" y="186" width="34" height="34" fill="#fff" stroke="#222" stroke-width="1.5"/>
<text x="268" y="212" font-size="16" fill="#222">L</text>
</g>
<text x="200" y="244" font-family="Arial, sans-serif" font-size="11" fill="#666">1 Across · Holiest river of India</text>
<text x="200" y="283" font-size="30" fill="#dc2626">MINI CROSSWORD</text>
</g>
</svg>
