<svg xmlns="http://www.w3.org/2000/svg" viewBox="0 0 400 300" preserveAspectRatio="xMidYMid slice">
<rect width="400" height="300" fill="#0f172a"/>
<rect x="0" y="0" width="400" height="6" fill="#ff9933"/>
<rect x="0" y="6" width="400" height="3" fill="#fff"/>
<rect x="0" y="9" width="400" height="6" fill="#138808"/>
<g font-family="Georgia, serif" text-anchor="middle">
<text x="200" y="38" font-size="12" font-weight="700" fill="#fbbf24" letter-spacing="2" font-family="Arial">🪑 CONNECT PM TO IT'S ICONIC MOMENT</text>
<!-- PMs left column -->
<circle cx="60" cy="80" r="22" fill="#3b82f6"/>
<text x="60" y="86" font-size="13" font-weight="900" fill="#fff" font-family="Arial">JN</text>
<text x="60" y="115" font-size="9" font-weight="700" fill="#fff" font-family="Arial">NEHRU</text>
<text x="60" y="125" font-size="8" fill="#94a3b8" font-family="Arial">1947-64</text>
<circle cx="60" cy="145" r="22" fill="#22c55e"/>
<text x="60" y="151" font-size="13" font-weight="900" fill="#fff" font-family="Arial">IG</text>
<text x="60" y="180" font-size="9" font-weight="700" fill="#fff" font-family="Arial">INDIRA</text>
<text x="60" y="190" font-size="8" fill="#94a3b8" font-family="Arial">1966-77</text>
<circle cx="60" cy="210" r="22" fill="#a855f7"/>
<text x="60" y="216" font-size="11" font-weight="900" fill="#fff" font-family="Arial">PVN</text>
<text x="60" y="245" font-size="9" font-weight="700" fill="#fff" font-family="Arial">RAO</text>
<text x="60" y="255" font-size="8" fill="#94a3b8" font-family="Arial">1991-96</text>
<!-- Items right column -->
<rect x="200" y="60" width="170" height="40" rx="6" fill="#1e293b" stroke="#334155" stroke-width="1"/>
<text x="285" y="79" font-size="10" font-weight="700" fill="#fff" font-family="Arial">First 5-Year Plan</text>
<text x="285" y="93" font-size="9" fill="#94a3b8" font-family="Arial">1951</text>
<rect x="200" y="125" width="170" height="40" rx="6" fill="#1e293b" stroke="#334155" stroke-width="1"/>
<text x="285" y="144" font-size="10" font-weight="700" fill="#fff" font-family="Arial">Bangladesh War &amp; Bank Nat.</text>
<text x="285" y="158" font-size="9" fill="#94a3b8" font-family="Arial">1969 / 1971</text>
<rect x="200" y="190" width="170" height="40" rx="6" fill="#1e293b" stroke="#334155" stroke-width="1"/>
<text x="285" y="209" font-size="10" font-weight="700" fill="#fff" font-family="Arial">1991 LPG Reforms</text>
<text x="285" y="223" font-size="9" fill="#94a3b8" font-family="Arial">Liberalization</text>
<!-- Connection lines -->
<path d="M 82 80 Q 140 80 200 80" fill="none" stroke="#22c55e" stroke-width="2.5"/>
<path d="M 82 145 Q 140 145 200 145" fill="none" stroke="#22c55e" stroke-width="2.5"/>
<path d="M 82 210 Q 140 210 200 210" fill="none" stroke="#22c55e" stroke-width="2.5"/>
<text x="200" y="275" font-family="Arial Black, sans-serif" font-size="32" font-weight="900" fill="#fbbf24">PM QUEST</text>
</g>
</svg>
