<svg xmlns="http://www.w3.org/2000/svg" viewBox="0 0 400 300" preserveAspectRatio="xMidYMid slice">
<defs>
<linearGradient id="trbg" x1="0" y1="0" x2="0" y2="1">
<stop offset="0%" stop-color="#3d2817"/>
<stop offset="100%" stop-color="#6b4423"/>
</linearGradient>
</defs>
<rect width="400" height="300" fill="url(#trbg)"/>
<g font-family="Georgia, serif" text-anchor="middle">
<text x="200" y="35" font-size="12" font-weight="700" fill="#fbbf24" letter-spacing="2">⏱ ORDER THE EVENTS</text>
<line x1="50" y1="80" x2="350" y2="80" stroke="#fbbf24" stroke-width="2" stroke-dasharray="2,4"/>
<circle cx="80" cy="80" r="6" fill="#fbbf24"/>
<text x="80" y="65" font-size="10" fill="#fbbf24" font-family="Arial">1</text>
<circle cx="140" cy="80" r="6" fill="#fbbf24"/>
<text x="140" y="65" font-size="10" fill="#fbbf24" font-family="Arial">2</text>
<circle cx="200" cy="80" r="6" fill="#fbbf24"/>
<text x="200" y="65" font-size="10" fill="#fbbf24" font-family="Arial">3</text>
<circle cx="260" cy="80" r="6" fill="#fbbf24"/>
<text x="260" y="65" font-size="10" fill="#fbbf24" font-family="Arial">4</text>
<circle cx="320" cy="80" r="6" fill="#fbbf24"/>
<text x="320" y="65" font-size="10" fill="#fbbf24" font-family="Arial">5</text>
<rect x="30" y="100" width="100" height="40" rx="4" fill="#fef3c7"/>
<text x="80" y="118" font-size="9" font-weight="700" fill="#78350f" font-family="Arial">PLASSEY</text>
<text x="80" y="132" font-size="11" font-weight="900" fill="#78350f" font-family="Arial">1757</text>
<rect x="150" y="100" width="100" height="40" rx="4" fill="#fef3c7"/>
<text x="200" y="118" font-size="9" font-weight="700" fill="#78350f" font-family="Arial">JALLIANWALA</text>
<text x="200" y="132" font-size="11" font-weight="900" fill="#78350f" font-family="Arial">1919</text>
<rect x="270" y="100" width="100" height="40" rx="4" fill="#fef3c7"/>
<text x="320" y="118" font-size="9" font-weight="700" fill="#78350f" font-family="Arial">SALT MARCH</text>
<text x="320" y="132" font-size="11" font-weight="900" fill="#78350f" font-family="Arial">1930</text>
<rect x="30" y="155" width="100" height="40" rx="4" fill="#fef3c7"/>
<text x="80" y="173" font-size="9" font-weight="700" fill="#78350f" font-family="Arial">QUIT INDIA</text>
<text x="80" y="187" font-size="11" font-weight="900" fill="#78350f" font-family="Arial">1942</text>
<rect x="150" y="155" width="100" height="40" rx="4" fill="#fef3c7"/>
<text x="200" y="173" font-size="9" font-weight="700" fill="#78350f" font-family="Arial">INDEPENDENCE</text>
<text x="200" y="187" font-size="11" font-weight="900" fill="#78350f" font-family="Arial">1947</text>
<rect x="270" y="155" width="100" height="40" rx="4" fill="rgba(254,243,199,0.3)" stroke="#fbbf24" stroke-width="1.5" stroke-dasharray="3,3"/>
<text x="320" y="180" font-size="14" fill="#fbbf24" font-family="Arial">DRAG?</text>
<text x="200" y="225" font-size="11" font-weight="700" fill="#fff" font-family="Arial">DRAG-DROP CHRONOLOGICAL ORDER</text>
<text x="200" y="245" font-size="10" fill="#fbbf24" font-family="Arial">⚡ +20 PER CORRECT  ✦ TIME BONUS</text>
<text x="200" y="290" font-family="Arial Black, sans-serif" font-size="32" font-weight="900" fill="#fbbf24">TIMELINE RUSH</text>
</g>
</svg>
