<svg xmlns="http://www.w3.org/2000/svg" viewBox="0 0 400 300" preserveAspectRatio="xMidYMid slice">
<rect width="400" height="300" fill="#1e1e28"/>
<g font-family="Arial Black, sans-serif" font-weight="900" text-anchor="middle">
<text x="200" y="35" font-family="Arial, sans-serif" font-size="12" font-weight="700" fill="#999" letter-spacing="2">FIND 4 GROUPS OF 4</text>
<rect x="30" y="50" width="340" height="30" rx="6" fill="#22c55e"/>
<text x="200" y="70" font-size="13" fill="#fff">RIVERS OF INDIA · GANGA · YAMUNA · KAVERI · GODAVARI</text>
<rect x="30" y="90" width="80" height="42" rx="6" fill="#eab308"/>
<text x="70" y="116" font-size="13" fill="#1e1e28">AKBAR</text>
<rect x="115" y="90" width="80" height="42" rx="6" fill="#eab308"/>
<text x="155" y="116" font-size="13" fill="#1e1e28">BABUR</text>
<rect x="200" y="90" width="80" height="42" rx="6" fill="#eab308"/>
<text x="240" y="116" font-size="13" fill="#1e1e28">JAHANGIR</text>
<rect x="285" y="90" width="85" height="42" rx="6" fill="#eab308"/>
<text x="327" y="116" font-size="13" fill="#1e1e28">SHAHJAHAN</text>
<rect x="30" y="140" width="80" height="42" rx="6" fill="#fff"/>
<text x="70" y="166" font-size="13" fill="#1e1e28">DELHI</text>
<rect x="115" y="140" width="80" height="42" rx="6" fill="#313136"/>
<text x="155" y="166" font-size="13" fill="#fff">NOUN</text>
<rect x="200" y="140" width="80" height="42" rx="6" fill="#fff"/>
<text x="240" y="166" font-size="13" fill="#1e1e28">PARIS</text>
<rect x="285" y="140" width="85" height="42" rx="6" fill="#313136"/>
<text x="327" y="166" font-size="13" fill="#fff">VERB</text>
<rect x="30" y="190" width="80" height="42" rx="6" fill="#313136"/>
<text x="70" y="216" font-size="13" fill="#fff">ADJ</text>
<rect x="115" y="190" width="80" height="42" rx="6" fill="#fff"/>
<text x="155" y="216" font-size="13" fill="#1e1e28">TOKYO</text>
<rect x="200" y="190" width="80" height="42" rx="6" fill="#313136"/>
<text x="240" y="216" font-size="13" fill="#fff">ADVERB</text>
<rect x="285" y="190" width="85" height="42" rx="6" fill="#fff"/>
<text x="327" y="216" font-size="13" fill="#1e1e28">LONDON</text>
<text x="200" y="262" font-family="Arial, sans-serif" font-size="12" font-weight="700" fill="#999">♥ ♥ ♥ ♡   MISTAKES 1/4</text>
<text x="200" y="290" font-size="30" fill="#fff">WORD GROUPS</text>
</g>
</svg>
